<svg width="current" height="current" viewBox="0 0 24 24" fill="none" xmlns="http://www.w3.org/2000/svg">
    <path fill-rule="evenodd" clip-rule="evenodd"
          d="M0.390524 12.9428C-0.130175 12.4221 -0.130175 11.5779 0.390524 11.0572L11.0572 0.390524C11.5779 -0.130175 12.4221 -0.130175 12.9428 0.390524C13.4635 0.911222 13.4635 1.75544 12.9428 2.27614L3.21895 12L12.9428 21.7239C13.4635 22.2446 13.4635 23.0888 12.9428 23.6095C12.4221 24.1302 11.5779 24.1302 11.0572 23.6095L0.390524 12.9428Z"
          fill="#3D3D3D"/>
    <path fill-rule="evenodd" clip-rule="evenodd"
          d="M0 12C0 11.2636 0.596954 10.6667 1.33333 10.6667H22.6667C23.403 10.6667 24 11.2636 24 12C24 12.7364 23.403 13.3333 22.6667 13.3333H1.33333C0.596954 13.3333 0 12.7364 0 12Z"
          fill="#3D3D3D"/>
</svg>
