<svg width="current" height="current" viewBox="0 0 24 24" fill="none" xmlns="http://www.w3.org/2000/svg">
    <path fill-rule="evenodd" clip-rule="evenodd"
          d="M23.6095 0.390525C24.1302 0.911224 24.1302 1.75544 23.6095 2.27614L2.27614 23.6095C1.75544 24.1302 0.911223 24.1302 0.390524 23.6095C-0.130175 23.0888 -0.130175 22.2446 0.390524 21.7239L21.7239 0.390525C22.2446 -0.130174 23.0888 -0.130174 23.6095 0.390525Z"
          fill="#3D3D3D"/>
    <path fill-rule="evenodd" clip-rule="evenodd"
          d="M23.6095 23.6095C23.0888 24.1302 22.2446 24.1302 21.7239 23.6095L0.390526 2.27614C-0.130173 1.75544 -0.130173 0.911222 0.390526 0.390523C0.911224 -0.130176 1.75545 -0.130176 2.27614 0.390523L23.6095 21.7239C24.1302 22.2446 24.1302 23.0888 23.6095 23.6095Z"
          fill="#3D3D3D"/>
</svg>
