<svg width="25" height="24" viewBox="0 0 25 24" fill="none" xmlns="http://www.w3.org/2000/svg">
<path fill-rule="evenodd" clip-rule="evenodd" d="M12.4998 20.4444C12.0948 20.4444 11.7117 20.2603 11.4587 19.944L4.34757 11.0551C3.88756 10.4801 3.98079 9.64108 4.55581 9.18106C5.13082 8.72105 5.96988 8.81428 6.42989 9.38929L12.4998 16.9767L18.5698 9.38929C19.0298 8.81428 19.8689 8.72105 20.4439 9.18106C21.0189 9.64108 21.1121 10.4801 20.6521 11.0551L13.541 19.944C13.288 20.2603 12.9049 20.4444 12.4998 20.4444Z" fill="#3D3D3D"/>
<path fill-rule="evenodd" clip-rule="evenodd" d="M12.4998 20.4444C11.7635 20.4444 11.1665 19.8475 11.1665 19.1111L11.1665 1.33333C11.1665 0.596952 11.7635 -1.90735e-06 12.4998 -1.90735e-06C13.2362 -1.90735e-06 13.8332 0.596952 13.8332 1.33333L13.8332 19.1111C13.8332 19.8475 13.2362 20.4444 12.4998 20.4444Z" fill="#3D3D3D"/>
<path fill-rule="evenodd" clip-rule="evenodd" d="M1.83333 14.2222C2.56971 14.2222 3.16667 14.8192 3.16667 15.5556V21.3333H21.8333V15.5556C21.8333 14.8192 22.4303 14.2222 23.1667 14.2222C23.903 14.2222 24.5 14.8192 24.5 15.5556V22.6667C24.5 23.403 23.903 24 23.1667 24H1.83333C1.09695 24 0.5 23.403 0.5 22.6667V15.5556C0.5 14.8192 1.09695 14.2222 1.83333 14.2222Z" fill="#3D3D3D"/>
</svg>
