<svg width="current" height="current" viewBox="0 0 24 24" fill="none" xmlns="http://www.w3.org/2000/svg">
    <path fill-rule="evenodd" clip-rule="evenodd"
          d="M0.375 18C0.375 17.3787 0.87868 16.875 1.5 16.875H6V19.125H1.5C0.87868 19.125 0.375 18.6213 0.375 18Z"
          fill="#3D3D3D"/>
    <path fill-rule="evenodd" clip-rule="evenodd"
          d="M22.5 19.125L10.5 19.125V16.875L22.5 16.875C23.1213 16.875 23.625 17.3787 23.625 18C23.625 18.6213 23.1213 19.125 22.5 19.125Z"
          fill="#3D3D3D"/>
    <path fill-rule="evenodd" clip-rule="evenodd"
          d="M8.25 18.75C9.07843 18.75 9.75 18.0784 9.75 17.25C9.75 16.4216 9.07843 15.75 8.25 15.75C7.42157 15.75 6.75 16.4216 6.75 17.25C6.75 18.0784 7.42157 18.75 8.25 18.75ZM8.25 21C10.3211 21 12 19.3211 12 17.25C12 15.1789 10.3211 13.5 8.25 13.5C6.17893 13.5 4.5 15.1789 4.5 17.25C4.5 19.3211 6.17893 21 8.25 21Z"
          fill="#3D3D3D"/>
    <path fill-rule="evenodd" clip-rule="evenodd"
          d="M23.625 7.5C23.625 8.12132 23.1213 8.625 22.5 8.625H18V6.375L22.5 6.375C23.1213 6.375 23.625 6.87868 23.625 7.5Z"
          fill="#3D3D3D"/>
    <path fill-rule="evenodd" clip-rule="evenodd"
          d="M1.5 6.375L13.5 6.375V8.625L1.5 8.625C0.87868 8.625 0.375 8.12132 0.375 7.5C0.375 6.87868 0.87868 6.375 1.5 6.375Z"
          fill="#3D3D3D"/>
    <path fill-rule="evenodd" clip-rule="evenodd"
          d="M15.75 8.25C14.9216 8.25 14.25 7.57843 14.25 6.75C14.25 5.92157 14.9216 5.25 15.75 5.25C16.5784 5.25 17.25 5.92157 17.25 6.75C17.25 7.57843 16.5784 8.25 15.75 8.25ZM15.75 10.5C13.6789 10.5 12 8.82107 12 6.75C12 4.67893 13.6789 3 15.75 3C17.8211 3 19.5 4.67893 19.5 6.75C19.5 8.82107 17.8211 10.5 15.75 10.5Z"
          fill="#3D3D3D"/>
</svg>
