<svg width="17" height="16" viewBox="0 0 17 16" fill="none" xmlns="http://www.w3.org/2000/svg">
<path fill-rule="evenodd" clip-rule="evenodd" d="M6.58225 1.73779C4.18287 1.73779 2.23779 3.68287 2.23779 6.08225C2.23779 8.48163 4.18287 10.4267 6.58225 10.4267C8.98163 10.4267 10.9267 8.48163 10.9267 6.08225C10.9267 3.68287 8.98163 1.73779 6.58225 1.73779ZM0.5 6.08225C0.5 2.72312 3.22312 0 6.58225 0C9.94138 0 12.6645 2.72312 12.6645 6.08225C12.6645 9.44138 9.94138 12.1645 6.58225 12.1645C3.22312 12.1645 0.5 9.44138 0.5 6.08225Z" fill="#3D3D3D"/>
<path fill-rule="evenodd" clip-rule="evenodd" d="M10.637 8.9083L15.8855 14.1568C16.2248 14.4961 16.2248 15.0463 15.8855 15.3856C15.5462 15.7249 14.996 15.7249 14.6567 15.3856L9.4082 10.1371L10.637 8.9083Z" fill="#3D3D3D"/>
</svg>
