<svg width="25" height="24" viewBox="0 0 25 24" fill="none" xmlns="http://www.w3.org/2000/svg">
<path fill-rule="evenodd" clip-rule="evenodd" d="M9.62338 2.60668C6.02431 2.60668 3.10668 5.52431 3.10668 9.12338C3.10668 12.7225 6.02431 15.6401 9.62338 15.6401C13.2225 15.6401 16.1401 12.7225 16.1401 9.12338C16.1401 5.52431 13.2225 2.60668 9.62338 2.60668ZM0.5 9.12338C0.5 4.08468 4.58468 0 9.62338 0C14.6621 0 18.7468 4.08468 18.7468 9.12338C18.7468 14.1621 14.6621 18.2468 9.62338 18.2468C4.58468 18.2468 0.5 14.1621 0.5 9.12338Z" fill="#3D3D3D"/>
<path fill-rule="evenodd" clip-rule="evenodd" d="M15.7055 13.3625L23.5783 21.2352C24.0872 21.7442 24.0872 22.5694 23.5783 23.0784C23.0693 23.5874 22.244 23.5874 21.7351 23.0784L13.8623 15.2057L15.7055 13.3625Z" fill="#3D3D3D"/>
</svg>
