<svg width="current" height="current" viewBox="0 0 24 24" fill="none" xmlns="http://www.w3.org/2000/svg">
    <path fill-rule="evenodd" clip-rule="evenodd"
          d="M12 21.5C17.2467 21.5 21.5 17.2467 21.5 12C21.5 6.75329 17.2467 2.5 12 2.5C6.75329 2.5 2.5 6.75329 2.5 12C2.5 17.2467 6.75329 21.5 12 21.5ZM12 24C18.6274 24 24 18.6274 24 12C24 5.37258 18.6274 0 12 0C5.37258 0 0 5.37258 0 12C0 18.6274 5.37258 24 12 24Z"
          fill="#3D3D3D"/>
    <path fill-rule="evenodd" clip-rule="evenodd"
          d="M12 10.75C12.6904 10.75 13.25 11.3096 13.25 12V18C13.25 18.6904 12.6904 19.25 12 19.25C11.3096 19.25 10.75 18.6904 10.75 18V12C10.75 11.3096 11.3096 10.75 12 10.75Z"
          fill="#3D3D3D"/>
    <path fill-rule="evenodd" clip-rule="evenodd"
          d="M12 5.75C12.6904 5.75 13.25 6.30964 13.25 7L13.25 8C13.25 8.69036 12.6904 9.25 12 9.25C11.3096 9.25 10.75 8.69036 10.75 8L10.75 7C10.75 6.30964 11.3096 5.75 12 5.75Z"
          fill="#3D3D3D"/>
</svg>
